<svg xmlns="http://www.w3.org/2000/svg" xmlns:xlink="http://www.w3.org/1999/xlink" width="431px" height="168px" version="1.1"><defs><clipPath id="mx-clip-4-31-422-26-0"><rect x="4" y="31" width="422" height="26"></rect></clipPath><clipPath id="mx-clip-4-65-422-26-0"><rect x="4" y="65" width="422" height="26"></rect></clipPath><clipPath id="mx-clip-4-91-422-26-0"><rect x="4" y="91" width="422" height="26"></rect></clipPath><clipPath id="mx-clip-4-117-422-26-0"><rect x="4" y="117" width="422" height="26"></rect></clipPath><clipPath id="mx-clip-4-143-422-26-0"><rect x="4" y="143" width="422" height="26"></rect></clipPath></defs><g transform="translate(0.5,0.5)"><path d="M 0 26 L 0 0 L 430 0 L 430 26" fill="#ffffff" stroke="#000000" stroke-miterlimit="10" pointer-events="none"></path><path d="M 0 26 L 0 164 L 430 164 L 430 26" fill="#ffffff" stroke="#000000" stroke-miterlimit="10" pointer-events="none"></path><path d="M 0 26 L 430 26" fill="none" stroke="#000000" stroke-miterlimit="10" pointer-events="none"></path><g fill="#000000" font-family="Helvetica" font-weight="bold" text-anchor="middle" font-size="12px"><text x="214.5" y="18.5">Crypt</text></g><g fill="#000000" font-family="Helvetica" clip-path="url(#mx-clip-4-31-422-26-0)" font-size="12px"><text x="5.5" y="43.5">- encryptors: org.springframework.security.crypto.encrypt.Encryptors</text></g><path d="M 0 56 L 430 56" fill="none" stroke="#000000" stroke-miterlimit="10" pointer-events="none"></path><g fill="#000000" font-family="Helvetica" clip-path="url(#mx-clip-4-65-422-26-0)" font-size="12px"><text x="5.5" y="77.5">+ init( password: StringBuilder, salt: StringBuilder): void</text></g><g fill="#000000" font-family="Helvetica" clip-path="url(#mx-clip-4-91-422-26-0)" font-size="12px"><text x="5.5" y="103.5">+ encrypt( content: String&#160;): char[]</text></g><g fill="#000000" font-family="Helvetica" clip-path="url(#mx-clip-4-117-422-26-0)" font-size="12px"><text x="5.5" y="129.5">+ decrypt(&#160;content: String&#160;): char[]</text></g><g fill="#000000" font-family="Helvetica" clip-path="url(#mx-clip-4-143-422-26-0)" font-size="12px"><text x="5.5" y="155.5">+ createSalt(): StringBuilder</text></g></g></svg>